<svg xmlns="http://www.w3.org/2000/svg" xmlns:xlink="http://www.w3.org/1999/xlink" viewBox="375 375 750 750" preserveAspectRatio="xMidYMid meet" role="img" aria-label="Dugout"><defs><filter x="0%" y="0%" width="100%" height="100%" id="3fc587c36a"><feColorMatrix values="0 0 0 0 1 0 0 0 0 1 0 0 0 0 1 0 0 0 1 0" color-interpolation-filters="sRGB"/></filter><clipPath id="38cbf51753"><path d="M 375 375 L 1125 375 L 1125 1125 L 375 1125 Z M 375 375 " clip-rule="nonzero"/></clipPath><clipPath id="918246255a"><path d="M 450 375 L 1050 375 C 1091.421875 375 1125 408.578125 1125 450 L 1125 1050 C 1125 1091.421875 1091.421875 1125 1050 1125 L 450 1125 C 408.578125 1125 375 1091.421875 375 1050 L 375 450 C 375 408.578125 408.578125 375 450 375 Z M 450 375 " clip-rule="nonzero"/></clipPath><clipPath id="6d49ac21f3"><path d="M 0 0 L 750 0 L 750 750 L 0 750 Z M 0 0 " clip-rule="nonzero"/></clipPath><clipPath id="4318bde51d"><path d="M 75 0 L 675 0 C 716.421875 0 750 33.578125 750 75 L 750 675 C 750 716.421875 716.421875 750 675 750 L 75 750 C 33.578125 750 0 716.421875 0 675 L 0 75 C 0 33.578125 33.578125 0 75 0 Z M 75 0 " clip-rule="nonzero"/></clipPath><clipPath id="2f16497568"><rect x="0" width="750" y="0" height="750"/></clipPath><mask id="2e839164a6"><g filter="url(#3fc587c36a)"><rect x="-150" width="1800" fill="#000000" y="-149.999993" height="1799.99992" fill-opacity="0.65"/></g></mask><clipPath id="f741ac758d"><path d="M 195 197.867188 L 635 197.867188 L 635 535.367188 L 195 535.367188 Z M 195 197.867188 " clip-rule="nonzero"/></clipPath><clipPath id="c57ff787cc"><path d="M 323.5 197.867188 L 619 197.867188 C 623.867188 197.867188 628.433594 200.203125 631.277344 204.152344 C 634.125 208.097656 634.898438 213.171875 633.359375 217.789062 L 534.140625 515.441406 C 530.175781 527.339844 519.039062 535.367188 506.5 535.367188 L 211 535.367188 C 206.132812 535.367188 201.566406 533.027344 198.722656 529.078125 C 195.875 525.132812 195.101562 520.058594 196.640625 515.441406 L 295.859375 217.789062 C 299.824219 205.890625 310.957031 197.867188 323.5 197.867188 Z M 323.5 197.867188 " clip-rule="nonzero"/></clipPath><clipPath id="68a619aed2"><rect x="0" width="830" y="0" height="733"/></clipPath><clipPath id="a571896a34"><path d="M 511 581.25 L 950 581.25 L 950 918.75 L 511 918.75 Z M 511 581.25 " clip-rule="nonzero"/></clipPath><clipPath id="1af3c01ede"><path d="M 639.289062 581.25 L 934.789062 581.25 C 939.652344 581.25 944.222656 583.589844 947.066406 587.535156 C 949.914062 591.484375 950.6875 596.554688 949.148438 601.171875 L 849.929688 898.828125 C 845.964844 910.726562 834.828125 918.75 822.289062 918.75 L 526.789062 918.75 C 521.921875 918.75 517.355469 916.410156 514.507812 912.464844 C 511.664062 908.515625 510.890625 903.441406 512.429688 898.828125 L 611.648438 601.171875 C 615.613281 589.273438 626.746094 581.25 639.289062 581.25 Z M 639.289062 581.25 " clip-rule="nonzero"/></clipPath></defs><g clip-path="url(#38cbf51753)"><g clip-path="url(#918246255a)"><g transform="matrix(1, 0, 0, 1, 375, 375)"><g clip-path="url(#2f16497568)"><g clip-path="url(#6d49ac21f3)"><g clip-path="url(#4318bde51d)"><rect x="-705" width="2160" fill="#915233" height="2159.999904" y="-704.999985" fill-opacity="1"/></g></g></g></g></g></g><g mask="url(#2e839164a6)"><g transform="matrix(1, 0, 0, 1, 335, 405)"><g clip-path="url(#68a619aed2)"><g clip-path="url(#f741ac758d)"><g clip-path="url(#c57ff787cc)"><path stroke-linecap="butt" transform="matrix(0.75, 0, 0, 0.75, 189.999988, 197.865338)" fill="none" stroke-linejoin="miter" d="M 178.000031 0.00246537 L 572.000065 0.00246537 C 578.489649 0.00246537 584.578191 3.117049 588.369858 8.382674 C 592.166733 13.643092 593.197984 20.408717 591.1459 26.564968 L 458.854222 423.434794 C 453.567763 439.299378 438.718804 450.002504 422.000052 450.002504 L 28.000018 450.002504 C 21.510434 450.002504 15.421892 446.882712 11.630225 441.617087 C 7.83335 436.35667 6.8021 429.591044 8.854183 423.434794 L 141.145861 26.564968 C 146.43232 10.700383 161.276071 0.00246537 178.000031 0.00246537 Z M 178.000031 0.00246537 " stroke="#ddd8d8" stroke-width="128" stroke-opacity="1" stroke-miterlimit="4"/></g></g></g></g></g><g clip-path="url(#a571896a34)"><g clip-path="url(#1af3c01ede)"><path stroke-linecap="butt" transform="matrix(0.75, 0, 0, 0.75, 505.788446, 581.24993)" fill="none" stroke-linejoin="miter" d="M 178.000838 0.00009342 L 572.000872 0.00009342 C 578.485247 0.00009342 584.578998 3.119885 588.370665 8.380302 C 592.16754 13.645928 593.19879 20.406345 591.146707 26.562596 L 458.855028 423.43763 C 453.56857 439.302215 438.71961 450.000132 422.000859 450.000132 L 28.000825 450.000132 C 21.511241 450.000132 15.422699 446.88034 11.625823 441.619923 C 7.834156 436.354298 6.802906 429.588672 8.85499 423.43763 L 141.146668 26.562596 C 146.433127 10.698011 161.276878 0.00009342 178.000838 0.00009342 Z M 178.000838 0.00009342 " stroke="#ffffff" stroke-width="128" stroke-opacity="1" stroke-miterlimit="4"/></g></g></svg>
